<svg id="Camada_1" data-name="Camada 1" xmlns="http://www.w3.org/2000/svg" viewBox="0 0 283.46 36.79"><defs><style>.cls-1{fill:#c3ddde;}</style></defs><title>tuk-n-roll-logo</title><path class="cls-1" d="M28.51,4.31V14.93h-3.4a4.7,4.7,0,0,0-4.7,4.71V35.77H8.14V19.64a4.71,4.71,0,0,0-4.71-4.71H0V4.31Z"/><path class="cls-1" d="M251.25,25.2a4.83,4.83,0,0,1-4.83-4.83v-16H234.15V35.77h23.59V25.2Z"/><path class="cls-1" d="M277,25.2a4.84,4.84,0,0,1-4.84-4.83v-16H259.87V35.77h23.59V25.2Z"/><path class="cls-1" d="M229.43,11a12.9,12.9,0,0,0-5.25-5.74,18,18,0,0,0-16.43,0A12.94,12.94,0,0,0,202.48,11a20.41,20.41,0,0,0-1.83,9,20.48,20.48,0,0,0,1.83,9,12.94,12.94,0,0,0,5.27,5.76,18,18,0,0,0,16.43,0,12.9,12.9,0,0,0,5.25-5.76,20.77,20.77,0,0,0,1.81-9,20.7,20.7,0,0,0-1.81-9m-8.65,13a4.84,4.84,0,1,1-9.67,0V15.76a4.84,4.84,0,1,1,9.67,0Z"/><path class="cls-1" d="M195.27,22.6c2.36-1.76,3.54-4.4,3.54-7.94q0-5-3.21-7.69t-9.3-2.65H171.16V35.77h12.27V25a.29.29,0,0,1,.29-.29.3.3,0,0,1,.29.22h0l2.73,10.84h12.81Zm-10.88-2a4.84,4.84,0,1,1,4.83-4.83,4.84,4.84,0,0,1-4.83,4.83"/><path class="cls-1" d="M46.33,4.31,47.4,25.78a2.32,2.32,0,0,1-4.64,0L43.82,4.31H31.35V21.77A18.35,18.35,0,0,0,33,29.84,11.65,11.65,0,0,0,37.72,35a14.46,14.46,0,0,0,7.36,1.78A14.55,14.55,0,0,0,52.47,35a11.61,11.61,0,0,0,4.71-5.17,18.5,18.5,0,0,0,1.62-8.07V4.31Z"/><path class="cls-1" d="M159.66,11.18V9.68a4.93,4.93,0,0,1-3.36-1.46A4.54,4.54,0,0,1,155,4.91a4.8,4.8,0,0,1,1.39-3.5A4.67,4.67,0,0,1,159.85,0a4.47,4.47,0,0,1,3.36,1.42A4.91,4.91,0,0,1,164.57,5a6.09,6.09,0,0,1-1.33,3.88A6.87,6.87,0,0,1,159.66,11.18Z"/><path class="cls-1" d="M84.67,19,95,4.31H81.85L76.57,14.66h0A2.4,2.4,0,0,1,72,13.74a2.63,2.63,0,0,1,.05-.49h0l2.26-8.94H61.75V35.77H74.64L73,25a.8.8,0,0,1,0-.15l0-.22h0c0-.05,0-.1,0-.15a2.39,2.39,0,0,1,4.62-.89h0L82,35.77H96.54Z"/><path class="cls-1" d="M116.77,4.22V35.85H128.7l-3.09-10.13h0a2.3,2.3,0,0,1-.12-.74,2.39,2.39,0,0,1,4-1.8h0l13.86,12.67h5.07V4.22h-12l3.19,12h0c0,.11,0,.22,0,.34a2.4,2.4,0,0,1-2.4,2.4,2.43,2.43,0,0,1-1.53-.55h0L120.79,4.22Z"/><path class="cls-1" d="M106.24,11.18V9.68a5,5,0,0,1-3.37-1.46,4.58,4.58,0,0,1-1.3-3.31,4.8,4.8,0,0,1,1.4-3.5A4.66,4.66,0,0,1,106.42,0a4.47,4.47,0,0,1,3.37,1.42A5,5,0,0,1,111.15,5a6.1,6.1,0,0,1-1.34,3.88A6.85,6.85,0,0,1,106.24,11.18Z"/></svg>