<svg id="Camada_1" data-name="Camada 1" xmlns="http://www.w3.org/2000/svg" viewBox="0 0 283.46 130.56"><defs><style>.cls-1{fill:#545fa8;}</style></defs><title>tuk-n-roll-logo</title><path class="cls-1" d="M187,110.59a8.33,8.33,0,0,1-8.33-8.32V74.63H157.55V128.8h40.62V110.59Z"/><path class="cls-1" d="M232,110.59a8.33,8.33,0,0,1-8.33-8.32V74.63H202.51V128.8h40.63V110.59Z"/><path class="cls-1" d="M149.3,86.17a22.19,22.19,0,0,0-9-9.88,27.81,27.81,0,0,0-14.18-3.42A27.68,27.68,0,0,0,112,76.29a22.45,22.45,0,0,0-9.08,9.88,35.19,35.19,0,0,0-3.14,15.54,35.27,35.27,0,0,0,3.14,15.51,22.36,22.36,0,0,0,9.08,9.91,27.68,27.68,0,0,0,14.12,3.43,27.81,27.81,0,0,0,14.18-3.43,22.11,22.11,0,0,0,9-9.91,35.7,35.7,0,0,0,3.11-15.51,35.62,35.62,0,0,0-3.11-15.54m-14.9,22.38a8.33,8.33,0,0,1-16.65,0V94.33a8.33,8.33,0,0,1,16.65,0Z"/><path class="cls-1" d="M90,106.11q6.11-4.53,6.1-13.67,0-8.67-5.52-13.24t-16-4.57H48.46V128.8H69.59V110.24a.5.5,0,0,1,.5-.5.52.52,0,0,1,.49.38h0l4.7,18.68H97.35Zm-18.73-3.45a8.33,8.33,0,1,1,8.33-8.33,8.33,8.33,0,0,1-8.33,8.33"/><path class="cls-1" d="M49.34,7.46V25.84H43.47A8.15,8.15,0,0,0,35.32,34V61.91H14.09V34a8.15,8.15,0,0,0-8.15-8.15H0V7.46Z"/><path class="cls-1" d="M80.2,7.46,82,44.62a4,4,0,0,1-8,0L75.84,7.46H54.27V37.67a31.72,31.72,0,0,0,2.84,14,20.19,20.19,0,0,0,8.18,8.94A25,25,0,0,0,78,63.69,25.13,25.13,0,0,0,90.81,60.6,20.09,20.09,0,0,0,99,51.66a32.29,32.29,0,0,0,2.8-14V7.46Z"/><path class="cls-1" d="M275,19.35v-2.6a8.57,8.57,0,0,1-5.81-2.52A7.89,7.89,0,0,1,266.9,8.5a8.29,8.29,0,0,1,2.41-6.06,8.07,8.07,0,0,1,6-2.44,7.75,7.75,0,0,1,5.82,2.46,8.51,8.51,0,0,1,2.35,6.11,10.52,10.52,0,0,1-2.3,6.71A11.88,11.88,0,0,1,275,19.35Z"/><path class="cls-1" d="M146.55,32.79,164.34,7.46H141.66l-9.12,17.92h0a4.15,4.15,0,0,1-8-1.6,4,4,0,0,1,.09-.85h0l3.91-15.47H106.88V61.91h22.3L126.4,43.34c0-.09,0-.18,0-.26l-.06-.38h0a2.3,2.3,0,0,1,0-.26,4.15,4.15,0,0,1,8-1.54h0l7.66,21H167.1Z"/><path class="cls-1" d="M202.12,7.31V62.06h20.63l-5.34-17.55h0a4.15,4.15,0,0,1,6.68-4.4h0l24,22h8.77V7.31h-20.7L241.67,28h0a4,4,0,0,1,0,.6,4.15,4.15,0,0,1-6.79,3.2h0L209.08,7.31Z"/><path class="cls-1" d="M183.88,19.35v-2.6a8.59,8.59,0,0,1-5.82-2.52,7.89,7.89,0,0,1-2.25-5.73,8.29,8.29,0,0,1,2.41-6.06,8.1,8.1,0,0,1,6-2.44A7.74,7.74,0,0,1,190,2.46a8.52,8.52,0,0,1,2.36,6.11,10.53,10.53,0,0,1-2.31,6.71A11.89,11.89,0,0,1,183.88,19.35Z"/></svg>